<svg width="274" height="377" viewBox="0 0 274 377" fill="none" xmlns="http://www.w3.org/2000/svg">
<path fill-rule="evenodd" clip-rule="evenodd" d="M129.71 12.8954C112.683 42.9898 99.6658 61.8725 59.7758 114.342C35.5689 146.182 25.9855 160.549 16.3896 179.381C9.06296 193.759 4.21359 207.233 1.7104 220.163L0 228.995L0.41839 245.568L0.836733 262.142L2.79756 270.611C6.92322 288.428 14.7483 305.839 25.1166 320.268C31.8577 329.648 47.9114 345.396 57.4845 352.018C77.5861 365.922 99.3361 373.679 126.167 376.513C141.482 378.129 162.67 375.642 179.375 370.266C226.384 355.138 260.699 317.74 271.512 269.851L273.426 261.372L273.884 248.551C274.778 223.503 270.604 205.59 258.034 180.536C249.292 163.113 239.039 147.689 216.066 117.406C173.94 61.8771 157.898 38.3983 142.998 10.468C139.926 4.71085 137.322 0 137.21 0C137.098 0 133.724 5.80332 129.71 12.8954ZM191.317 152.342C177.636 158.497 176.498 177.743 189.388 184.962L192.483 186.695V233.272L192.484 279.849L184.64 289.762L176.796 299.674V301.922C176.796 304.581 179.876 307.95 182.306 307.95C185.675 307.95 185.535 308.099 204.46 284.299C204.919 283.723 205.166 264.633 205.099 235.027L204.989 186.695L207.227 185.732C213.361 183.095 217.568 176.296 217.596 168.976L217.613 164.345L215.961 161.277C213.545 156.793 211.422 154.763 207.016 152.725C202.161 150.48 195.801 150.325 191.317 152.342ZM197.204 162.995C192.434 164.674 190.974 170.261 194.422 173.641C199.183 178.312 207.493 173.386 205.457 167.098C204.616 164.497 199.775 162.09 197.204 162.995ZM234.489 201.097C231.993 202.502 231.009 204.198 230.982 207.145L230.957 209.888L233.159 211.957L235.36 214.025H238.153H240.947L243.017 211.996L245.086 209.966V207.096V204.227L243.017 202.197C240.776 199.999 237.25 199.545 234.489 201.097ZM59.9838 214.898C53.1776 216.111 48.2191 220.591 45.982 227.553L44.6162 231.802L45.5432 236.138C46.7292 241.684 49.3917 245.598 53.8714 248.383L57.4272 250.594L57.4555 269.919C57.4853 289.838 57.9492 293.458 60.6549 294.878C63.3677 296.302 66.6903 295.756 68.4164 293.603L70.0436 291.575V270.944V250.313L71.7007 249.797C74.415 248.952 79.6058 243.886 81.138 240.586C83.0289 236.514 83.0242 229.243 81.1278 225.188C77.466 217.358 69.0813 213.278 59.9838 214.898ZM133.352 214.906C128.323 215.637 123.797 218.826 120.997 223.612L118.725 227.498L118.717 232.725C118.712 236.372 119.165 238.829 120.217 240.85C122.068 244.408 125.977 248.246 129.004 249.476L131.269 250.396V303.339V356.281L132.738 358.06L134.206 359.839H137.156H140.106L141.575 358.06L143.043 356.281V303.339V250.396L145.309 249.476C151.489 246.965 155.562 240.232 155.578 232.502L155.588 227.498L153.315 223.612C149.272 216.698 142.211 213.619 133.352 214.906ZM61.0168 227.242C56.8919 229.645 56.2066 234.494 59.5615 237.543C62.1942 239.936 65.4054 239.959 68.1943 237.606L70.3576 235.781V232.969C70.3576 229.645 68.3497 227.336 64.9391 226.739C63.6448 226.512 61.8802 226.738 61.0168 227.242ZM132.779 228.593C129.933 231.384 129.853 233.958 132.516 237.062L134.549 239.431H137.156H139.764L141.796 237.062C142.914 235.759 143.828 233.827 143.828 232.769C143.828 230.187 139.837 226.343 137.156 226.343C135.9 226.343 134.162 227.237 132.779 228.593ZM235.162 248.634C230.83 250.423 229.626 256.275 232.882 259.72L234.807 261.757H238.02H241.233L243.159 259.867L245.086 257.978V254.998V252.018L243.282 250.356C241.175 248.414 237.553 247.646 235.162 248.634ZM14.7051 251.909C12.1753 253.332 11.2247 255.02 11.198 258.135L11.1729 261.058L13.0999 262.947L15.0262 264.837H18.1322H21.2374L23.2697 262.468C26.0224 259.26 25.9322 256.099 23.0075 253.229C20.5569 250.827 17.4956 250.339 14.7051 251.909ZM97.5166 258.475C92.7034 259.766 90.5361 263.406 92.0479 267.659C93.6045 272.037 99.946 273.412 103.496 270.141L105.366 268.418V265.222V262.026L103.6 260.458C101.665 258.74 99.3448 257.984 97.5166 258.475ZM166.426 263.577C165.687 264.127 164.701 265.562 164.235 266.765C161.607 273.546 169.2 279.053 175.301 274.793L177.581 273.201V269.753V266.307L175.654 264.417L173.728 262.527L170.748 262.552C169.11 262.565 167.165 263.026 166.426 263.577ZM224.958 287.898C220.606 289.695 219.354 295.87 222.68 299.131L224.606 301.021H227.817H231.028L232.955 299.131C238.181 294.006 231.816 285.065 224.958 287.898ZM33.2118 290.696L30.7965 292.689V295.657C30.7965 299.494 33.4103 302.627 36.6875 302.719C40.4034 302.823 42.4937 301.86 43.7566 299.465C45.9333 295.336 44.9404 291.856 41.0164 289.866C37.7738 288.221 35.9795 288.412 33.2118 290.696ZM86.0996 298.292C83.5337 300.808 83.5132 304.803 86.0517 307.697L87.9309 309.84H91.2371H94.5432L96.4224 307.697C98.9609 304.803 98.9405 300.808 96.3745 298.292L94.4483 296.402H91.2371H88.0259L86.0996 298.292ZM201.129 313.854C200.482 314.102 199.157 315.014 198.186 315.881L196.419 317.457V320.437V323.417L198.346 325.307L200.273 327.197H203.484H206.695L208.621 325.307C211.139 322.838 211.21 318.781 208.782 316.076C207.003 314.093 203.308 313.02 201.129 313.854ZM66.5082 322.77C62.651 326.024 64.1032 332.584 69.0342 334.18L71.7061 335.045L74.1112 334.068C76.8624 332.95 79.0352 328.787 78.2298 326.178C77.2518 323.009 74.6779 321.038 71.5201 321.038C69.5836 321.038 67.852 321.636 66.5082 322.77ZM102.619 335.826C100.052 337.269 99.1375 338.948 99.1116 342.268L99.0865 345.405L100.903 347.08C102.948 348.963 108.051 349.343 110.144 347.766C113.29 345.397 114.071 340.978 111.825 338.258C109.197 335.076 105.627 334.133 102.619 335.826ZM163.364 336.05C162.236 336.651 160.873 338.186 160.335 339.46L159.357 341.777L160.223 344.216C161.387 347.491 163.214 348.699 167.044 348.729L170.242 348.753L171.999 346.919C175.127 343.654 174.036 337.554 170.001 335.75C167.509 334.637 165.877 334.711 163.364 336.05Z" fill="url(#paint0_linear_58_141)"/>
<defs>
<linearGradient id="paint0_linear_58_141" x1="215.845" y1="-50.7271" x2="-43.3459" y2="316.396" gradientUnits="userSpaceOnUse">
<stop offset="0.121978" stop-color="#1D4ED8"/>
<stop offset="0.562748" stop-color="#1F2937"/>
</linearGradient>
</defs>
</svg>
